# Blender v2.93.6 OBJ File: 'paper.blend'
# www.blender.org
mtllib paper.mtl
o paper
v 1.305674 -1.372750 0.488033
v -0.440027 -1.372750 2.252735
v -3.963528 -1.372750 -1.232769
v -2.217827 -1.372747 -2.997570
v -3.926626 0.152050 -1.220760
v -3.926626 -0.610351 -1.220768
v -0.452526 -0.610351 2.215931
v -0.452526 0.152050 2.215939
v 1.268772 0.152050 0.475941
v 1.268772 -0.610351 0.475933
v -2.205326 -0.610348 -2.960766
v -2.205326 0.152053 -2.960758
v 1.305674 0.914450 0.488041
v -0.370827 0.914450 0.350842
v -0.595427 0.914450 0.577839
v -0.440027 0.914450 2.252743
v -0.403027 0.914450 -0.069958
v -0.683228 0.914450 -0.571857
v -2.217827 0.914453 -2.997463
v -1.136526 0.914450 -1.020161
v -1.641327 0.914450 -1.294964
v -2.062428 0.914450 -1.322559
v -3.963528 0.914450 -1.232761
v -2.287027 0.914450 -1.095562
v -2.254827 0.914450 -0.674763
v -1.974627 0.914450 -0.172962
v -1.521326 0.914450 0.275440
v -1.016527 0.914450 0.550243
v -0.396727 0.850550 0.331242
v -0.615227 0.850550 0.552143
v -0.428026 0.850550 -0.078159
v -0.700727 0.850550 -0.566463
v -1.141727 0.850550 -1.002659
v -1.632927 0.850550 -1.270061
v -2.042627 0.850550 -1.296963
v -2.261127 0.850550 -1.075962
v -2.229828 0.850550 -0.666660
v -1.957127 0.850550 -0.178364
v -1.516127 0.850550 0.257938
v -1.024927 0.850550 0.525242
v -1.328926 0.850550 -0.372356
v -1.023027 1.202550 -0.228359
v -0.864428 2.002150 -0.426853
v -1.463827 2.114050 -0.598057
v -1.583027 1.248150 -0.332363
v -0.921528 1.270949 0.178242
v -0.515226 1.275450 0.301640
v -0.271727 2.099050 0.155643
v -0.711527 2.134550 -0.007458
v -2.060627 2.108850 -1.316555
v -2.100927 1.280650 -0.965061
v -1.660526 1.214250 -0.820957
v -1.589626 2.000649 -1.108456
v -1.231627 2.869650 -1.059155
v -0.646227 2.717750 -0.817654
v -1.104527 0.648849 -0.212658
v -1.576527 0.651850 -0.268360
v 0.032373 2.819750 -0.190456
v -0.435427 2.891850 -0.422253
v -0.681627 0.649750 0.238941
v -1.040728 0.651550 0.139339
v -2.012028 0.650350 -0.791759
v -1.620728 0.648350 -0.687862
v -1.415426 2.699650 -1.546757
v -1.913927 2.821650 -1.833355
vt 0.606900 0.169700
vt 0.393100 0.169700
vt 0.393100 0.169700
vt 0.606900 0.169700
vt 0.263600 0.307200
vt 0.263600 0.259300
vt 0.263600 0.259300
vt 0.263600 0.307200
vt 0.304700 0.307200
vt 0.304700 0.259300
vt 0.304700 0.259300
vt 0.304700 0.307200
vt 0.606900 0.366600
vt 0.513800 0.366600
vt 0.486300 0.366600
vt 0.393100 0.366600
vt 0.537600 0.366600
vt 0.551300 0.366600
vt 0.606900 0.366600
vt 0.551300 0.366600
vt 0.537600 0.366600
vt 0.513800 0.366600
vt 0.393100 0.366600
vt 0.486300 0.366600
vt 0.462400 0.366600
vt 0.448700 0.366600
vt 0.448700 0.366600
vt 0.462400 0.366600
vt 0.513400 0.361100
vt 0.486600 0.361100
vt 0.536500 0.361100
vt 0.549900 0.361100
vt 0.549900 0.361100
vt 0.536500 0.361100
vt 0.513400 0.361100
vt 0.486600 0.361100
vt 0.463500 0.361100
vt 0.450100 0.361100
vt 0.450100 0.361100
vt 0.463500 0.361100
vt 0.275200 0.384100
vt 0.287700 0.384100
vt 0.281400 0.384100
vt 0.298500 0.384100
vt 0.304700 0.384100
vt 0.304700 0.384100
vt 0.298500 0.384100
vt 0.287700 0.384100
vt 0.275200 0.384100
vt 0.264400 0.384100
vt 0.258100 0.384100
vt 0.258100 0.384100
vt 0.264400 0.384100
vt 0.394600 0.301000
vt 0.394600 0.301000
vt 0.394600 0.235300
vt 0.394600 0.235300
vt 0.605400 0.301000
vt 0.605400 0.235300
vt 0.605400 0.301000
vt 0.605400 0.235300
vt 0.346000 0.319000
vt 0.346700 0.369900
vt 0.327300 0.371100
vt 0.326700 0.316000
vt 0.332200 0.319200
vt 0.343600 0.322900
vt 0.345100 0.375600
vt 0.333300 0.374200
vt 0.332700 0.372400
vt 0.331100 0.319400
vt 0.344300 0.319200
vt 0.345200 0.369300
vt 0.342600 0.423600
vt 0.359200 0.419000
vt 0.351800 0.285600
vt 0.334700 0.280700
vt 0.359200 0.425500
vt 0.348400 0.426800
vt 0.350400 0.285300
vt 0.339800 0.282200
vt 0.338600 0.281800
vt 0.350300 0.285200
vt 0.358200 0.417600
vt 0.347500 0.422100
vn 0.0000 -1.0000 -0.0000
vn -0.7032 -0.0116 0.7109
vn -0.7032 0.0116 0.7109
vn 0.7107 -0.0229 0.7031
vn 0.7107 0.0229 0.7031
vn 0.7032 0.0116 -0.7109
vn 0.7032 -0.0115 -0.7109
vn 0.7032 0.0115 -0.7109
vn -0.7107 0.0229 -0.7031
vn -0.7107 -0.0229 -0.7031
vn -0.7107 0.0230 -0.7031
vn -0.0000 1.0000 0.0000
vn -0.8588 0.4323 -0.2748
vn -0.2844 0.4323 -0.8557
vn -0.3434 0.4401 -0.8297
vn -0.8334 0.4400 -0.3345
vn -0.9000 0.3133 0.3031
vn -0.9127 0.3253 0.2472
vn -0.7734 0.2600 0.5782
vn -0.7639 0.2584 0.5914
vn -0.5697 0.2599 0.7796
vn -0.5831 0.2584 0.7702
vn -0.2375 0.3254 0.9153
vn -0.2933 0.3134 0.9032
vn 0.2844 0.4321 0.8558
vn 0.3435 0.4396 0.8299
vn 0.8333 0.4402 0.3345
vn 0.8589 0.4323 0.2746
vn 0.9127 0.3254 -0.2471
vn 0.8999 0.3137 -0.3029
vn 0.7734 0.2602 -0.5781
vn 0.7639 0.2583 -0.5914
vn 0.5697 0.2600 -0.7796
vn 0.5830 0.2584 -0.7702
vn 0.2933 0.3136 -0.9031
vn 0.2374 0.3255 -0.9153
vn -0.7031 -0.0228 0.7107
vn -0.7031 0.0228 0.7107
vn 0.7102 -0.0455 0.7025
vn 0.7102 -0.0456 0.7025
vn 0.7102 0.0456 0.7025
vn 0.7102 0.0455 0.7025
vn 0.7031 -0.0227 -0.7107
vn 0.7031 0.0228 -0.7107
vn -0.7102 -0.0455 -0.7025
vn -0.7102 -0.0454 -0.7025
vn -0.7102 0.0455 -0.7025
vn -0.7102 0.0454 -0.7025
vn -0.6847 0.2388 0.6886
vn -0.6404 0.4327 0.6345
vn -0.6571 0.4041 0.6364
vn -0.7043 0.1598 0.6917
vn -0.7011 0.1840 0.6889
vn -0.2949 0.1480 0.9440
vn -0.2961 0.4084 0.8634
vn -0.6606 0.4117 0.6278
vn -0.2647 0.4981 0.8257
vn -0.2695 0.3072 0.9127
vn -0.7377 0.2197 0.6384
vn -0.6981 0.4237 0.5772
vn -0.6608 0.5102 0.5504
vn -0.5796 0.5406 0.6098
vn -0.6576 0.1435 0.7396
vn -0.6906 0.0407 0.7221
vn -0.2864 0.5251 0.8014
vn -0.6369 0.5199 0.5693
vn -0.2797 -0.0142 0.9600
vn -0.7685 0.0962 0.6325
vn -0.2632 0.2127 0.9410
vn -0.8003 0.1022 0.5908
vn -0.6115 0.5453 0.5734
vn -0.2562 0.5810 0.7725
g paper_paper_colors
usemtl colors
s 1
f 1/1/1 2/2/1 3/3/1
f 3/3/1 4/4/1 1/1/1
f 5/5/2 6/6/3 7/7/3
f 7/7/3 8/8/2 5/5/2
f 9/9/4 8/8/4 7/7/5
f 7/7/5 10/10/5 9/9/4
f 11/11/6 12/12/7 9/9/7
f 9/9/7 10/10/8 11/11/6
f 6/6/9 5/5/10 12/12/10
f 12/12/10 11/11/11 6/6/9
f 13/13/12 14/14/12 15/15/12
f 15/15/12 16/16/12 13/13/12
f 17/17/12 14/14/12 13/13/12
f 18/18/12 17/17/12 13/13/12
f 13/13/12 19/19/12 20/20/12
f 20/20/12 18/18/12 13/13/12
f 21/21/12 20/20/12 19/19/12
f 22/22/12 21/21/12 19/19/12
f 23/23/12 24/24/12 22/22/12
f 22/22/12 19/19/12 23/23/12
f 25/25/12 24/24/12 23/23/12
f 26/26/12 25/25/12 23/23/12
f 26/26/12 23/23/12 16/16/12
f 16/16/12 27/27/12 26/26/12
f 28/28/12 27/27/12 16/16/12
f 15/15/12 28/28/12 16/16/12
f 29/29/13 30/30/14 15/15/15
f 15/15/15 14/14/16 29/29/13
f 31/31/17 29/29/13 14/14/16
f 14/14/16 17/17/18 31/31/17
f 18/18/19 32/32/20 31/31/17
f 31/31/17 17/17/18 18/18/19
f 20/20/21 33/33/22 32/32/20
f 32/32/20 18/18/19 20/20/21
f 20/20/21 21/21/23 34/34/24
f 34/34/24 33/33/22 20/20/21
f 35/35/25 34/34/24 21/21/23
f 21/21/23 22/22/26 35/35/25
f 24/24/27 36/36/28 35/35/25
f 35/35/25 22/22/26 24/24/27
f 25/25/29 37/37/30 36/36/28
f 36/36/28 24/24/27 25/25/29
f 25/25/29 26/26/31 38/38/32
f 38/38/32 37/37/30 25/25/29
f 27/27/33 39/39/34 38/38/32
f 38/38/32 26/26/31 27/27/33
f 40/40/35 39/39/34 27/27/33
f 27/27/33 28/28/36 40/40/35
f 28/28/36 15/15/15 30/30/14
f 30/30/14 40/40/35 28/28/36
f 30/41/12 29/42/12 41/43/12
f 29/42/12 31/44/12 41/43/12
f 31/44/12 32/45/12 41/43/12
f 32/45/12 33/46/12 41/43/12
f 33/46/12 34/47/12 41/43/12
f 34/47/12 35/48/12 41/43/12
f 35/48/12 36/49/12 41/43/12
f 36/49/12 37/50/12 41/43/12
f 37/50/12 38/51/12 41/43/12
f 38/51/12 39/52/12 41/43/12
f 39/52/12 40/53/12 41/43/12
f 40/53/12 30/41/12 41/43/12
f 8/54/2 16/16/37 23/23/37
f 23/23/37 5/55/2 8/54/2
f 3/3/38 2/2/38 7/56/3
f 7/56/3 6/57/3 3/3/38
f 13/13/39 16/16/40 8/54/4
f 8/54/4 9/58/4 13/13/39
f 10/59/5 7/56/5 2/2/41
f 2/2/41 1/1/42 10/59/5
f 12/60/7 19/19/43 13/13/43
f 13/13/43 9/58/7 12/60/7
f 11/61/6 10/59/8 1/1/44
f 1/1/44 4/4/44 11/61/6
f 19/19/45 12/60/10 5/55/10
f 5/55/10 23/23/46 19/19/45
f 6/57/9 11/61/11 4/4/47
f 4/4/47 3/3/48 6/57/9
f 42/62/49 43/63/50 44/64/51
f 44/64/51 45/65/52 42/62/49
f 46/66/53 47/67/54 48/68/55
f 48/68/55 49/69/56 46/66/53
f 42/62/49 46/66/53 49/69/56
f 49/69/56 43/63/50 42/62/49
f 50/70/57 51/71/58 52/72/59
f 52/72/59 53/73/60 50/70/57
f 52/72/59 45/65/52 44/64/51
f 44/64/51 53/73/60 52/72/59
f 54/74/61 44/64/51 43/63/50
f 43/63/50 55/75/62 54/74/61
f 56/76/63 42/62/49 45/65/52
f 45/65/52 57/77/64 56/76/63
f 49/69/56 48/68/55 58/78/65
f 58/78/65 59/79/66 49/69/56
f 60/80/67 47/67/54 46/66/53
f 46/66/53 61/81/68 60/80/67
f 43/63/50 49/69/56 59/79/66
f 59/79/66 55/75/62 43/63/50
f 46/66/53 42/62/49 56/76/63
f 56/76/63 61/81/68 46/66/53
f 62/82/69 63/83/70 52/72/59
f 52/72/59 51/71/58 62/82/69
f 50/70/57 53/73/60 64/84/71
f 64/84/71 65/85/72 50/70/57
f 57/77/64 45/65/52 52/72/59
f 52/72/59 63/83/70 57/77/64
f 53/73/60 44/64/51 54/74/61
f 54/74/61 64/84/71 53/73/60
